<?xml version="1.0" encoding="utf-8"?>
<!-- Generator: Adobe Illustrator 25.2.0, SVG Export Plug-In . SVG Version: 6.00 Build 0)  -->
<svg version="1.1" id="Layer_1" xmlns="http://www.w3.org/2000/svg" xmlns:xlink="http://www.w3.org/1999/xlink" x="0px" y="0px"
	 viewBox="0 0 256 256" style="enable-background:new 0 0 256 256;" xml:space="preserve">
<g>
	<path d="M153.09,148.44L153.09,148.44l0-83.21h-29.83v24.04v56.59c-0.01,0.91-0.05,3.25-0.32,6.31l-1.57,10.13
		c-0.43,1.84-0.95,3.68-1.59,5.47c-1.18,2.87-2.65,5.6-4.35,8.14c-0.49,0.61-0.88,1.17-1.19,1.69
		c-8.23,11.15-21.33,18.36-36.11,18.36C53.2,195.96,33,175.43,33,150.1c0-9.44,2.81-18.21,7.62-25.51l-25.9-15.13
		C7.4,121.23,3.15,135.16,3.15,150.1c0,42.08,33.57,76.19,74.98,76.19c41.41,0,74.98-34.11,74.98-76.19
		C153.12,149.54,153.1,148.99,153.09,148.44z"/>
	<path d="M217.66,115.67c12.38-7.47,20.66-21.06,20.66-36.57v-7.18c0-23.58-19.11-42.69-42.69-42.69h-35.46h-52.82v29.02h52.82l0,0
		l30.84,0.05c9.64,0,17.46,7.82,17.46,17.46v0c0,9.64-7.82,17.46-17.46,17.46h-30.84v19.48v35.82h34.28
		c11.9,0,21.55,9.63,21.55,21.52v0c0,11.88-9.65,21.52-21.55,21.52h-38.08h-7.36c0,0-10.61,27.03-37.15,35.23h44.5h43.77
		c29.11,0,52.71-23.56,52.71-52.62v-8.84C252.85,142.37,238.16,122.88,217.66,115.67z"/>
</g>
</svg>
